<svg xmlns="http://www.w3.org/2000/svg">
    <defs>
        <symbol id="system" viewBox="0 0 24 24" fill="currentColor">
            <g fill="none" fill-rule="evenodd">
                <path fill="currentColor" fill-rule="nonzero"
                    d="M19 3a2 2 0 0 1 2 2v11a2 2 0 0 1-2 2h-4v1h1a1 1 0 1 1 0 2H8a1 1 0 1 1 0-2h1v-1H5a2 2 0 0 1-2-2V5a2 2 0 0 1 2-2Zm-6 15h-2v1h2zm6-13H5v11h14z">
                </path>
            </g>
        </symbol>

        <symbol id="material-symbols:copyright-outline-rounded" viewBox="0 0 24 24">
            <path fill="currentColor"
                d="M12 22q-2.075 0-3.9-.788t-3.175-2.137T2.788 15.9T2 12t.788-3.9t2.137-3.175T8.1 2.788T12 2t3.9.788t3.175 2.137T21.213 8.1T22 12t-.788 3.9t-2.137 3.175t-3.175 2.138T12 22m0-2q3.35 0 5.675-2.325T20 12t-2.325-5.675T12 4T6.325 6.325T4 12t2.325 5.675T12 20m-2-4h4q.425 0 .713-.288T15 15v-1q0-.425-.288-.712T14 13t-.712.288T13 14h-2v-4h2q0 .425.288.713T14 11t.713-.288T15 10V9q0-.425-.288-.712T14 8h-4q-.425 0-.712.288T9 9v6q0 .425.288.713T10 16">
            </path>
        </symbol>

        <symbol id="fa6-solid:arrow-up-right-from-square" viewBox="0 0 512 512">
            <path fill="currentColor"
                d="M320 0c-17.7 0-32 14.3-32 32s14.3 32 32 32h82.7L201.4 265.4c-12.5 12.5-12.5 32.8 0 45.3s32.8 12.5 45.3 0L448 109.3V192c0 17.7 14.3 32 32 32s32-14.3 32-32V32c0-17.7-14.3-32-32-32zM80 32C35.8 32 0 67.8 0 112v320c0 44.2 35.8 80 80 80h320c44.2 0 80-35.8 80-80V320c0-17.7-14.3-32-32-32s-32 14.3-32 32v112c0 8.8-7.2 16-16 16H80c-8.8 0-16-7.2-16-16V112c0-8.8 7.2-16 16-16h112c17.7 0 32-14.3 32-32s-14.3-32-32-32z">
            </path>
        </symbol>

        <symbol id="material-symbols:chevron-right-rounded" viewBox="0 0 24 24">
            <path fill="currentColor"
                d="M12.6 12L8.7 8.1q-.275-.275-.275-.7t.275-.7t.7-.275t.7.275l4.6 4.6q.15.15.213.325t.062.375t-.062.375t-.213.325l-4.6 4.6q-.275.275-.7.275t-.7-.275t-.275-.7t.275-.7z"></path>
        </symbol>

        <symbol id="fa6-brands:creative-commons" viewBox="0 0 496 512">
            <path fill="currentColor"
                d="m245.83 214.87l-33.22 17.28c-9.43-19.58-25.24-19.93-27.46-19.93c-22.13 0-33.22 14.61-33.22 43.84c0 23.57 9.21 43.84 33.22 43.84c14.47 0 24.65-7.09 30.57-21.26l30.55 15.5c-6.17 11.51-25.69 38.98-65.1 38.98c-22.6 0-73.96-10.32-73.96-77.05c0-58.69 43-77.06 72.63-77.06c30.72-.01 52.7 11.95 65.99 35.86m143.05 0l-32.78 17.28c-9.5-19.77-25.72-19.93-27.9-19.93c-22.14 0-33.22 14.61-33.22 43.84c0 23.55 9.23 43.84 33.22 43.84c14.45 0 24.65-7.09 30.54-21.26l31 15.5c-2.1 3.75-21.39 38.98-65.09 38.98c-22.69 0-73.96-9.87-73.96-77.05c0-58.67 42.97-77.06 72.63-77.06c30.71-.01 52.58 11.95 65.56 35.86M247.56 8.05C104.74 8.05 0 123.11 0 256.05c0 138.49 113.6 248 247.56 248c129.93 0 248.44-100.87 248.44-248c0-137.87-106.62-248-248.44-248m.87 450.81c-112.54 0-203.7-93.04-203.7-202.81c0-105.42 85.43-203.27 203.72-203.27c112.53 0 202.82 89.46 202.82 203.26c-.01 121.69-99.68 202.82-202.84 202.82">
            </path>
        </symbol>

        <symbol id="material-symbols:calendar-today-outline-rounded" viewBox="0 0 24 24">
            <path fill="currentColor"
                d="M5 22q-.825 0-1.412-.587T3 20V6q0-.825.588-1.412T5 4h1V3q0-.425.288-.712T7 2t.713.288T8 3v1h8V3q0-.425.288-.712T17 2t.713.288T18 3v1h1q.825 0 1.413.588T21 6v14q0 .825-.587 1.413T19 22zm0-2h14V10H5zM5 8h14V6H5zm0 0V6z">
            </path>
        </symbol>

        <symbol id="material-symbols:edit-calendar-outline-rounded" viewBox="0 0 24 24">
            <path fill="currentColor"
                d="M5 22q-.825 0-1.412-.587T3 20V6q0-.825.588-1.412T5 4h1V3q0-.425.288-.712T7 2t.713.288T8 3v1h8V3q0-.425.288-.712T17 2t.713.288T18 3v1h1q.825 0 1.413.588T21 6v4.025q0 .425-.288.713t-.712.287t-.712-.288t-.288-.712V10H5v10h6q.425 0 .713.288T12 21t-.288.713T11 22zM5 8h14V6H5zm0 0V6zm9 13v-1.65q0-.2.075-.387t.225-.338l5.225-5.2q.225-.225.5-.325t.55-.1q.3 0 .575.113t.5.337l.925.925q.2.225.313.5t.112.55t-.1.563t-.325.512l-5.2 5.2q-.15.15-.337.225T16.65 22H15q-.425 0-.712-.287T14 21m7.5-5.575l-.925-.925zm-6 5.075h.95l3.025-3.05l-.45-.475l-.475-.45l-3.05 3.025zm3.525-3.525l-.475-.45l.925.925z">
            </path>
        </symbol>

        <symbol id="material-symbols:book-2-outline-rounded" viewBox="0 0 24 24">
            <path fill="currentColor"
                d="M6 15.325q.35-.175.725-.25T7.5 15H8V4h-.5q-.625 0-1.062.438T6 5.5zM10 15h8V4h-8zm-4 .325V4zM7.5 22q-1.45 0-2.475-1.025T4 18.5v-13q0-1.45 1.025-2.475T7.5 2H18q.825 0 1.413.587T20 4v12.525q0 .2-.162.363t-.588.362q-.35.175-.55.5t-.2.75t.2.763t.55.487t.55.413t.2.562v.25q0 .425-.288.725T19 22zm0-2h9.325q-.15-.35-.237-.712T16.5 18.5q0-.4.075-.775t.25-.725H7.5q-.65 0-1.075.438T6 18.5q0 .65.425 1.075T7.5 20">
            </path>
        </symbol>

        <symbol id="material-symbols:tag-rounded" viewBox="0 0 24 24">
            <path fill="currentColor"
                d="m9 16l-.825 3.275q-.075.325-.325.525t-.6.2q-.475 0-.775-.375T6.3 18.8L7 16H4.275q-.5 0-.8-.387T3.3 14.75q.075-.35.35-.55t.625-.2H7.5l1-4H5.775q-.5 0-.8-.387T4.8 8.75q.075-.35.35-.55t.625-.2H9l.825-3.275Q9.9 4.4 10.15 4.2t.6-.2q.475 0 .775.375t.175.825L11 8h4l.825-3.275q.075-.325.325-.525t.6-.2q.475 0 .775.375t.175.825L17 8h2.725q.5 0 .8.387t.175.863q-.075.35-.35.55t-.625.2H16.5l-1 4h2.725q.5 0 .8.388t.175.862q-.075.35-.35.55t-.625.2H15l-.825 3.275q-.075.325-.325.525t-.6.2q-.475 0-.775-.375T12.3 18.8L13 16zm.5-2h4l1-4h-4z">
            </path>
        </symbol>


        <symbol id="material-symbols:home-outline-rounded" viewBox="0 0 24 24">
            <path fill="currentColor"
                d="M6 19h3v-5q0-.425.288-.712T10 13h4q.425 0 .713.288T15 14v5h3v-9l-6-4.5L6 10zm-2 0v-9q0-.475.213-.9t.587-.7l6-4.5q.525-.4 1.2-.4t1.2.4l6 4.5q.375.275.588.7T20 10v9q0 .825-.588 1.413T18 21h-4q-.425 0-.712-.288T13 20v-5h-2v5q0 .425-.288.713T10 21H6q-.825 0-1.412-.587T4 19m8-6.75">
            </path>
        </symbol>

        <symbol id="material-symbols:chevron-left-rounded" viewBox="0 0 24 24">
            <path fill="currentColor"
                d="m10.8 12l3.9 3.9q.275.275.275.7t-.275.7t-.7.275t-.7-.275l-4.6-4.6q-.15-.15-.212-.325T8.425 12t.063-.375t.212-.325l4.6-4.6q.275-.275.7-.275t.7.275t.275.7t-.275.7z">
            </path>
        </symbol>

        <symbol id="material-symbols:more-horiz" viewBox="0 0 24 24">
            <path fill="currentColor"
                d="M6 14q-.825 0-1.412-.587T4 12t.588-1.412T6 10t1.413.588T8 12t-.587 1.413T6 14m6 0q-.825 0-1.412-.587T10 12t.588-1.412T12 10t1.413.588T14 12t-.587 1.413T12 14m6 0q-.825 0-1.412-.587T16 12t.588-1.412T18 10t1.413.588T20 12t-.587 1.413T18 14">
            </path>
        </symbol>

        <symbol id="fa6-regular:address-card" viewBox="0 0 576 512">
            <path fill="currentColor"
                d="M512 80c8.8 0 16 7.2 16 16v320c0 8.8-7.2 16-16 16H64c-8.8 0-16-7.2-16-16V96c0-8.8 7.2-16 16-16zM64 32C28.7 32 0 60.7 0 96v320c0 35.3 28.7 64 64 64h448c35.3 0 64-28.7 64-64V96c0-35.3-28.7-64-64-64zm144 224a64 64 0 1 0 0-128a64 64 0 1 0 0 128m-32 32c-44.2 0-80 35.8-80 80c0 8.8 7.2 16 16 16h192c8.8 0 16-7.2 16-16c0-44.2-35.8-80-80-80zm200-144c-13.3 0-24 10.7-24 24s10.7 24 24 24h80c13.3 0 24-10.7 24-24s-10.7-24-24-24zm0 96c-13.3 0-24 10.7-24 24s10.7 24 24 24h80c13.3 0 24-10.7 24-24s-10.7-24-24-24z">
            </path>
        </symbol>

        <symbol id="fa6-brands:github" viewBox="0 0 496 512">
            <path fill="currentColor"
                d="M165.9 397.4c0 2-2.3 3.6-5.2 3.6c-3.3.3-5.6-1.3-5.6-3.6c0-2 2.3-3.6 5.2-3.6c3-.3 5.6 1.3 5.6 3.6m-31.1-4.5c-.7 2 1.3 4.3 4.3 4.9c2.6 1 5.6 0 6.2-2s-1.3-4.3-4.3-5.2c-2.6-.7-5.5.3-6.2 2.3m44.2-1.7c-2.9.7-4.9 2.6-4.6 4.9c.3 2 2.9 3.3 5.9 2.6c2.9-.7 4.9-2.6 4.6-4.6c-.3-1.9-3-3.2-5.9-2.9M244.8 8C106.1 8 0 113.3 0 252c0 110.9 69.8 205.8 169.5 239.2c12.8 2.3 17.3-5.6 17.3-12.1c0-6.2-.3-40.4-.3-61.4c0 0-70 15-84.7-29.8c0 0-11.4-29.1-27.8-36.6c0 0-22.9-15.7 1.6-15.4c0 0 24.9 2 38.6 25.8c21.9 38.6 58.6 27.5 72.9 20.9c2.3-16 8.8-27.1 16-33.7c-55.9-6.2-112.3-14.3-112.3-110.5c0-27.5 7.6-41.3 23.6-58.9c-2.6-6.5-11.1-33.3 2.6-67.9c20.9-6.5 69 27 69 27c20-5.6 41.5-8.5 62.8-8.5s42.8 2.9 62.8 8.5c0 0 48.1-33.6 69-27c13.7 34.7 5.2 61.4 2.6 67.9c16 17.7 25.8 31.5 25.8 58.9c0 96.5-58.9 104.2-114.8 110.5c9.2 7.9 17 22.9 17 46.4c0 33.7-.3 75.4-.3 83.6c0 6.5 4.6 14.4 17.3 12.1C428.2 457.8 496 362.9 496 252C496 113.3 383.5 8 244.8 8M97.2 352.9c-1.3 1-1 3.3.7 5.2c1.6 1.6 3.9 2.3 5.2 1c1.3-1 1-3.3-.7-5.2c-1.6-1.6-3.9-2.3-5.2-1m-10.8-8.1c-.7 1.3.3 2.9 2.3 3.9c1.6 1 3.6.7 4.3-.7c.7-1.3-.3-2.9-2.3-3.9c-2-.6-3.6-.3-4.3.7m32.4 35.6c-1.6 1.3-1 4.3 1.3 6.2c2.3 2.3 5.2 2.6 6.5 1c1.3-1.3.7-4.3-1.3-6.2c-2.2-2.3-5.2-2.6-6.5-1m-11.4-14.7c-1.6 1-1.6 3.6 0 5.9s4.3 3.3 5.6 2.3c1.6-1.3 1.6-3.9 0-6.2c-1.4-2.3-4-3.3-5.6-2">
            </path>
        </symbol>

        <symbol id="material-symbols:notes-rounded" viewBox="0 0 24 24">
            <path fill="currentColor"
                d="M4 18q-.425 0-.712-.288T3 17t.288-.712T4 16h10q.425 0 .713.288T15 17t-.288.713T14 18zm0-5q-.425 0-.712-.288T3 12t.288-.712T4 11h16q.425 0 .713.288T21 12t-.288.713T20 13zm0-5q-.425 0-.712-.288T3 7t.288-.712T4 6h16q.425 0 .713.288T21 7t-.288.713T20 8z">
            </path>
        </symbol>

        <symbol id="material-symbols:schedule-outline-rounded" viewBox="0 0 24 24">
            <path fill="currentColor"
                d="M13 11.6V8q0-.425-.288-.712T12 7t-.712.288T11 8v3.975q0 .2.075.388t.225.337l3.3 3.3q.275.275.7.275T16 16t.275-.7t-.275-.7zM12 22q-2.075 0-3.9-.788t-3.175-2.137T2.788 15.9T2 12t.788-3.9t2.137-3.175T8.1 2.788T12 2t3.9.788t3.175 2.137T21.213 8.1T22 12t-.788 3.9t-2.137 3.175t-3.175 2.138T12 22m0-2q3.325 0 5.663-2.337T20 12t-2.337-5.663T12 4T6.337 6.338T4 12t2.338 5.663T12 20">
            </path>
        </symbol>

        <symbol id="light" viewBox="0 0 24 24">
            <path fill="currentColor"
                d="M11 3V2q0-.425.288-.712T12 1t.713.288T13 2v1q0 .425-.288.713T12 4t-.712-.288T11 3m0 19v-1q0-.425.288-.712T12 20t.713.288T13 21v1q0 .425-.288.713T12 23t-.712-.288T11 22m11-9h-1q-.425 0-.712-.288T20 12t.288-.712T21 11h1q.425 0 .713.288T23 12t-.288.713T22 13M3 13H2q-.425 0-.712-.288T1 12t.288-.712T2 11h1q.425 0 .713.288T4 12t-.288.713T3 13m16.75-7.325l-.35.35q-.275.275-.687.275T18 6q-.275-.275-.288-.687t.263-.713l.375-.375q.275-.3.7-.3t.725.3t.288.725t-.313.725M6.025 19.4l-.375.375q-.275.3-.7.3t-.725-.3t-.288-.725t.313-.725l.35-.35q.275-.275.688-.275T6 18q.275.275.288.688t-.263.712m12.3.35l-.35-.35q-.275-.275-.275-.687T18 18q.275-.275.688-.287t.712.262l.375.375q.3.275.3.7t-.3.725t-.725.288t-.725-.313M4.6 6.025l-.375-.375q-.3-.275-.3-.7t.3-.725t.725-.288t.725.313l.35.35q.275.275.275.688T6 6q-.275.275-.687.288T4.6 6.025M7.75 16.25Q6 14.5 6 12t1.75-4.25T12 6t4.25 1.75T18 12t-1.75 4.25T12 18t-4.25-1.75m7.088-1.412Q16 13.675 16 12t-1.162-2.838T12 8T9.162 9.163T8 12t1.163 2.838T12 16t2.838-1.162M12 12">
            </path>
        </symbol>
        <symbol id="dark" viewBox="0 0 24 24">
            <path fill="currentColor"
                d="M12 21q-3.775 0-6.387-2.613T3 12q0-3.45 2.25-5.988T11 3.05q.325-.05.575.088t.4.362t.163.525t-.188.575q-.425.65-.638 1.375T11.1 7.5q0 2.25 1.575 3.825T16.5 12.9q.775 0 1.538-.225t1.362-.625q.275-.175.563-.162t.512.137q.25.125.388.375t.087.6q-.35 3.45-2.937 5.725T12 21m0-2q2.2 0 3.95-1.213t2.55-3.162q-.5.125-1 .2t-1 .075q-3.075 0-5.238-2.163T9.1 7.5q0-.5.075-1t.2-1q-1.95.8-3.163 2.55T5 12q0 2.9 2.05 4.95T12 19m-.25-6.75">
            </path>
        </symbol>
        <symbol id="auto" viewBox="0 0 24 24">
            <path fill="currentColor"
                d="M12 17V7Q9.925 7 8.463 8.463T7 12t1.463 3.538T12 17m0 5q-2.075 0-3.9-.788t-3.175-2.137T2.788 15.9T2 12t.788-3.9t2.137-3.175T8.1 2.788T12 2t3.9.788t3.175 2.137T21.213 8.1T22 12t-.788 3.9t-2.137 3.175t-3.175 2.138T12 22m0-2q3.35 0 5.675-2.325T20 12t-2.325-5.675T12 4T6.325 6.325T4 12t2.325 5.675T12 20m0-8">
            </path>
        </symbol>

        <symbol id="material-symbols:search" viewBox="0 0 24 24">
            <path fill="currentColor"
                d="m19.6 21l-6.3-6.3q-.75.6-1.725.95T9.5 16q-2.725 0-4.612-1.888T3 9.5t1.888-4.612T9.5 3t4.613 1.888T16 9.5q0 1.1-.35 2.075T14.7 13.3l6.3 6.3zM9.5 14q1.875 0 3.188-1.312T14 9.5t-1.312-3.187T9.5 5T6.313 6.313T5 9.5t1.313 3.188T9.5 14">
            </path>
        </symbol>

        <symbol id="material-symbols:keyboard-arrow-up-rounded" viewBox="0 0 24 24">
            <path fill="currentColor"
                d="m12 10.8l-3.9 3.9q-.275.275-.7.275t-.7-.275t-.275-.7t.275-.7l4.6-4.6q.3-.3.7-.3t.7.3l4.6 4.6q.275.275.275.7t-.275.7t-.7.275t-.7-.275z">
            </path>
        </symbol>

    </defs>
</svg>